<?xml version="1.0" encoding="UTF-8" standalone="no"?>
<!-- Created with Inkscape (http://www.inkscape.org/) -->

<svg
   width="210mm"
   height="297mm"
   viewBox="0 0 210 297"
   version="1.1"
   id="svg1"
   inkscape:version="1.3 (0e150ed6c4, 2023-07-21)"
   sodipodi:docname="Pocket_watch_second.svg"
   xmlns:inkscape="http://www.inkscape.org/namespaces/inkscape"
   xmlns:sodipodi="http://sodipodi.sourceforge.net/DTD/sodipodi-0.dtd"
   xmlns="http://www.w3.org/2000/svg"
   xmlns:svg="http://www.w3.org/2000/svg">
  <sodipodi:namedview
     id="namedview1"
     pagecolor="#ffffff"
     bordercolor="#000000"
     borderopacity="0.25"
     inkscape:showpageshadow="2"
     inkscape:pageopacity="0.0"
     inkscape:pagecheckerboard="0"
     inkscape:deskcolor="#d1d1d1"
     inkscape:document-units="mm"
     inkscape:zoom="0.66903058"
     inkscape:cx="397.59019"
     inkscape:cy="561.25984"
     inkscape:window-width="1920"
     inkscape:window-height="986"
     inkscape:window-x="-11"
     inkscape:window-y="-11"
     inkscape:window-maximized="1"
     inkscape:current-layer="layer1" />
  <defs
     id="defs1" />
  <g
     inkscape:label="Calque 1"
     inkscape:groupmode="layer"
     id="layer1">
    <path
       d="m 63.811335,64.336002 0.06601,-0.310568 0.517631,0.110014 -0.06601,0.310568 z m 42.441285,41.992018 c 0.15875,0.58209 0.74083,0.9525 1.32291,0.87313 l 0.1323,0.50271 0.26458,-0.0794 -0.13229,-0.50271 c 0.58208,-0.21167 0.89958,-0.82021 0.74083,-1.42875 -0.15875,-0.60854 -0.74083,-0.97896 -1.34937,-0.87313 l -8.995838,-33.416872 -0.264583,0.07937 8.995831,33.416872 c -0.55562,0.23813 -0.87312,0.84667 -0.71437,1.42875 z m 0.92604,-1.21708 c 0.50271,-0.13229 1.00542,0.15875 1.13771,0.66146 0.13229,0.50271 -0.15875,1.00541 -0.66146,1.13771 -0.50271,0.13229 -1.00542,-0.15875 -1.13771,-0.66146 -0.13229,-0.47625 0.15875,-1.00542 0.66146,-1.13771 z"
       id="path31"
       style="stroke-width:0.264583" />
  </g>
</svg>
