<?xml version="1.0" encoding="UTF-8" standalone="no"?>
<svg
   width="400"
   height="550"
   version="1.1"
   id="svg51"
   sodipodi:docname="Pocket_watch.svg"
   inkscape:version="1.3 (0e150ed6c4, 2023-07-21)"
   xmlns:inkscape="http://www.inkscape.org/namespaces/inkscape"
   xmlns:sodipodi="http://sodipodi.sourceforge.net/DTD/sodipodi-0.dtd"
   xmlns:xlink="http://www.w3.org/1999/xlink"
   xmlns="http://www.w3.org/2000/svg"
   xmlns:svg="http://www.w3.org/2000/svg">
  <sodipodi:namedview
     id="namedview51"
     pagecolor="#ffffff"
     bordercolor="#000000"
     borderopacity="0.25"
     inkscape:showpageshadow="2"
     inkscape:pageopacity="0.0"
     inkscape:pagecheckerboard="0"
     inkscape:deskcolor="#d1d1d1"
     inkscape:zoom="1.9310443"
     inkscape:cx="233.55238"
     inkscape:cy="358.09639"
     inkscape:window-width="1920"
     inkscape:window-height="986"
     inkscape:window-x="-11"
     inkscape:window-y="-11"
     inkscape:window-maximized="1"
     inkscape:current-layer="svg51" />
  <defs
     id="defs10">
    <linearGradient
       xlink:href="#a"
       id="b"
       x1="189.2"
       x2="377.69"
       y1="198.04"
       y2="524.51"
       gradientTransform="translate(-83.45 -7.23)" />
    <linearGradient
       id="a"
       gradientUnits="userSpaceOnUse">
      <stop
         offset="0"
         stop-color="#fff"
         id="stop1" />
      <stop
         offset="1"
         id="stop2" />
    </linearGradient>
    <linearGradient
       id="d"
       x1="255.46"
       x2="311.46"
       y1="137.47"
       y2="137.47"
       gradientTransform="translate(-83.45 -7.23)"
       gradientUnits="userSpaceOnUse">
      <stop
         offset="0"
         stop-color="#fff"
         id="stop3" />
      <stop
         offset=".096414"
         stop-color="#f9f9f9"
         id="stop4" />
      <stop
         offset=".2206"
         stop-color="#e9e9e9"
         id="stop5" />
      <stop
         offset=".36"
         stop-color="#cfcfcf"
         id="stop6" />
      <stop
         offset=".5106"
         stop-color="#aaa"
         id="stop7" />
      <stop
         offset=".6701"
         stop-color="#7a7a7a"
         id="stop8" />
      <stop
         offset=".8351"
         stop-color="#414141"
         id="stop9" />
      <stop
         offset="1"
         id="stop10" />
    </linearGradient>
    <linearGradient
       xlink:href="#a"
       id="c"
       x1="241.1"
       x2="325.83"
       y1="34.15"
       y2="135.12"
       gradientTransform="translate(-83.45 -7.23)" />
  </defs>
  <path
     fill="url(#b)"
     stroke="#1d1d1c"
     stroke-width="3"
     d="M105.75 517.27c-90.1-52-121-167.3-69-257.4s167.3-121 257.5-69c90.1 52 121 167.3 69 257.4-52.1 90.1-167.3 121-257.5 69zm239-79.7c46.2-80 18.8-182.2-61.2-228.3-80-46.2-182.2-18.8-228.3 61.2-46.2 79.9-18.8 182.2 61.2 228.3 79.9 46.2 182.1 18.8 228.3-61.2zm0 0c46.2-80 18.8-182.2-61.2-228.3-80-46.2-182.2-18.8-228.3 61.2-46.2 79.9-18.8 182.2 61.2 228.3 79.9 46.2 182.1 18.8 228.3-61.2z"
     id="path10" />
  <circle
     cx="201.35"
     cy="355.37"
     r="160"
     fill="#fff"
     id="circle10" />
  <path
     fill="url(#c)"
     stroke="#000"
     stroke-width="3"
     d="M246.65 30.77c-25.7-25.7-67.5-25.7-93.2 0s-25.7 67.5 0 93.2 67.5 25.7 93.2 0 25.7-67.4 0-93.2zm-8.1 85.1c-21.3 21.3-55.7 21.3-77 0s-21.3-55.7 0-77 55.7-21.3 77 0c21.2 21.3 21.2 55.8 0 77z"
     id="path11" />
  <path
     d="M245.15 122.47c-24.9 24.9-65.3 24.9-90.2 0s-24.9-65.3 0-90.2 65.3-24.9 90.2 0 24.9 65.3 0 90.2zm-1.3-89.9c-24.5-24.5-64.2-24.5-88.7 0s-24.5 64.2 0 88.7 64.2 24.5 88.7 0 24.5-64.2 0-88.7z"
     id="path12" />
  <path
     d="M243.45 120.57c-24 23.8-62.9 23.8-86.8 0-24-23.8-24-62.4 0-86.3 24-23.8 62.9-23.8 86.8 0 24 23.8 24 62.4 0 86.3zm-1.2-86c-23.6-23.4-61.8-23.4-85.4 0s-23.6 61.4 0 84.8 61.8 23.4 85.4 0 23.6-61.4 0-84.8z"
     id="path13" />
  <path
     d="M241.35 118.77c-22.9 22.9-59.9 22.9-82.8 0s-22.9-59.9 0-82.8 59.9-22.9 82.8 0 22.9 60 0 82.8zm-1.1-82.5c-22.5-22.5-58.9-22.5-81.4 0s-22.5 58.9 0 81.4 58.9 22.5 81.4 0 22.5-58.9 0-81.4z"
     id="path14" />
  <path
     fill="#fff"
     stroke="#000"
     stroke-width="2"
     d="M177.35 103.17h45.3v56.5h-45.3z"
     id="path15" />
  <path
     d="M179.15 107.77h1v50.9h-1zm4.6 0h1.5v50.9h-1.5zm4.6 0h1.9v50.9h-1.9zm4.7 0h2.3v50.9h-2.3zm4.6 0h2.8v50.9h-2.8zm4.6 0h3.2v50.9h-3.2zm4.7 0h3.6v50.9h-3.6zm4.6 0h4v50.9h-4zm4.7 0h4.5v50.9h-4.5z"
     id="path16" />
  <path
     fill="url(#d)"
     stroke="#000"
     stroke-width="3"
     d="M172.05 111.17h56v38.1h-56z"
     id="path17" />
  <path
     fill="#fff"
     stroke="#000"
     stroke-width="3"
     d="m235.05 102.37-5.1 5.1h-59.9l-5.1-5.1v-19l5.1-5.1h59.9l5.1 5.1z"
     id="path18" />
  <path
     d="M187.15 111.37h1v37.1h-1zm4.4 0h1.2v37.1h-1.2zm4.5 0h1.5v37.1h-1.5zm4.5 0h1.7v37.1h-1.7zm4.4 0h1.9v37.1h-1.9zm4.5 0h2.2v37.1h-2.2zm4.5 0h2.4v37.1h-2.4zm4.5 0h2.7v37.1h-2.7zm4.4 0h2.9v37.1h-2.9z"
     id="path19" />
  <path
     fill="#fff"
     stroke="#000"
     stroke-width="3"
     d="M172.05 156.67h56v10.2h-56z"
     id="path20" />
  <path
     d="M187.15 156.67h1v10.7h-1zm-12-45.3h1v37.1h-1zm0 45.3h1v10.7h-1zm16.4 0h1.2v10.7h-1.2zm4.5 0h1.5v10.7h-1.5zm4.5 0h1.7v10.7h-1.7zm4.4 0h1.9v10.7h-1.9zm4.5 0h2.2v10.7h-2.2zm4.5 0h2.4v10.7h-2.4zm4.5 0h2.7v10.7h-2.7zm4.4 0h2.9v10.7h-2.9z"
     id="path21" />
  <path
     fill="none"
     stroke="#000"
     d="M167.05 85.17h2.8v15.2h-2.8zm5.3 0h2.8v15.2h-2.8zm5.2 0h2.8v15.2h-2.8zm5.3 0h2.8v15.2h-2.8zm5.2 0h2.8v15.2h-2.8zm5.3 0h2.8v15.2h-2.8zm5.2 0h2.8v15.2h-2.8zm5.3 0h2.8v15.2h-2.8zm5.2 0h2.8v15.2h-2.8zm5.3 0h2.8v15.2h-2.8zm5.2 0h2.8v15.2h-2.8zm5.3 0h2.8v15.2h-2.8zm5.2 0h2.8v15.2h-2.8z"
     id="path22" />
  <path
     d="M167.05 85.17h1v15.2h-1zm5.3 0h1.1v15.2h-1.1zm5.3 0h1.1v15.2h-1.1zm5.3 0h1.2v15.2h-1.2zm5.3 0h1.3v15.2h-1.3zm5.3 0h1.3v15.2h-1.3zm5.2 0h1.4v15.2h-1.4zm5.3 0h1.4v15.2h-1.4zm5.3 0h1.5v15.2h-1.5zm5.3 0h1.5v15.2h-1.5zm5.3 0h1.6v15.2h-1.6zm5.2 0h1.7v15.2h-1.7zm5.3 0h1.7v15.2h-1.7zm-64.7-2.3h68.8v.9h-68.8zm-.2 19h68.8v.9h-68.8zm67.3-19.2-62.1-.6v-.4l62.1-.6zm-.8-1.8-59.8-.5v-.5l59.8-.5zm.8 22.2-62.1.5v.4l62.1.6zm-.8 1.7-59.8.6v.4l59.8.6z"
     id="path23" />
  <circle
     cx="201.35"
     cy="355.37"
     r="158.5"
     fill="none"
     stroke="#000"
     stroke-miterlimit="10"
     stroke-width="4"
     id="circle23" />
  <g
     stroke="#1d1d1c"
     id="g26">
    <path
       d="M385.75 354.07c0 102.5-83.2 185.7-185.7 185.7s-185.8-83.2-185.8-185.7 83.1-185.7 185.7-185.7 185.8 83.1 185.8 185.7zm-187.3-184.8c-101.2 0-183.3 82-183.3 183.2s82 183.3 183.3 183.3c101.2 0 183.3-82 183.3-183.3 0-101.1-82.1-183.2-183.3-183.2z"
       id="path24" />
    <path
       d="M379.75 354.07c0 99.3-80.5 179.7-179.7 179.7-99.3 0-179.7-80.5-179.7-179.7s80.5-179.7 179.7-179.7c99.2-.1 179.7 80.4 179.7 179.7zm-181.2-178.8c-98 0-177.4 79.4-177.4 177.3 0 98 79.4 177.4 177.4 177.4s177.4-79.4 177.4-177.4c-.1-97.9-79.5-177.3-177.4-177.3z"
       id="path25" />
    <path
       d="M373.65 354.07c0 95.9-77.7 173.6-173.6 173.6s-173.6-77.7-173.6-173.6 77.7-173.6 173.6-173.6c95.8 0 173.6 77.7 173.6 173.6zm-175.1-172.8c-94.6 0-171.3 76.7-171.3 171.3s76.7 171.3 171.3 171.3 171.3-76.7 171.3-171.3-76.7-171.3-171.3-171.3z"
       id="path26" />
  </g>
  <g
     id="j">
    <g
       id="i">
      <g
         id="h">
        <g
           id="g">
          <g
             id="f">
            <path
               id="e"
               fill="red"
               stroke="#000"
               stroke-linejoin="round"
               stroke-width="1.3"
               d="M200.05 212.92v5.0182m0 .8618v1.9446m0 .8554v1.9446" />
            <use
               xlink:href="#e"
               transform="rotate(6 200.05 354.07)"
               id="use26" />
          </g>
          <use
             xlink:href="#f"
             transform="rotate(12 200.05 354.07)"
             id="use27" />
        </g>
        <use
           xlink:href="#g"
           transform="rotate(24 200.05 354.07)"
           id="use28" />
      </g>
      <use
         xlink:href="#h"
         transform="rotate(48 200.05 354.07)"
         id="use29" />
    </g>
    <use
       xlink:href="#i"
       transform="rotate(90 200.05 354.07)"
       id="use30" />
  </g>
  <use
     xlink:href="#j"
     transform="rotate(180 200.05 354.07)"
     id="use31" />
  <circle
     cx="200.05"
     cy="354.07"
     r="9"
     id="circle33" />
  <path
     fill="#fff"
     d="M200.05 362.07c-4.4 0-8-3.6-8-8s3.6-8 8-8 8 3.6 8 8-3.6 8-8 8zm7.2-8.2c0-4.1-3.3-7.4-7.4-7.4s-7.4 3.3-7.4 7.4 3.3 7.4 7.4 7.4c4.1-.1 7.4-3.4 7.4-7.4z"
     id="path34" />
  <circle
     cx="196.15"
     cy="350.97"
     r=".8"
     fill="#fff"
     id="circle34" />
  <path
     id="k"
     d="M253.05 246.27c0-.5-.1-.8-.3-1.1l-.9-1.1c-.1-.1-.2-.2-.2-.3s.1-.2.2-.2h4.6c.1 0 .2.1.2.2s-.1.2-.2.3l-.9 1.1c-.2.3-.3.6-.3 1.1v22.8c0 .5.1.8.3 1.1l.9 1.1c.1.1.2.2.2.3s-.1.2-.2.2h-4.6c-.1 0-.2-.1-.2-.2s.1-.2.2-.3l.9-1.1c.2-.3.3-.6.3-1.1z" />
  <path
     id="m"
     d="M251.65 434.97c-.1-.4-.1-.7-.3-1l-1-1.2c-.1-.2-.2-.3-.2-.5 0-.1.1-.2.3-.2h4.5c.1 0 .2 0 .2.2s-.1.3-.1.4l-.8.9c-.2.3-.4.7-.3 1l1.5 13.2h.1l1.2-13.2c0-.3-.1-.7-.3-1l-.7-.9c-.1-.1-.2-.3-.2-.4s.1-.2.2-.2h3.9c.2 0 .3 0 .3.2s-.1.3-.2.5l-1 1.2c-.2.3-.3.6-.3 1l-2.3 25c0 .3-.1.4-.3.4h-1c-.1 0-.2-.1-.2-.3z" />
  <path
     id="p"
     d="m102.85 287.07-.3-.9-1-1.3c-.1-.2-.2-.3-.2-.4s.1-.2.2-.2h4.6c.1 0 .2 0 .2.2s-.1.3-.1.4l-.9 1c-.2.3-.4.6-.3.9l1.5 7h.1l1.6-7c.1-.3-.1-.6-.3-.9l-1-1c-.1-.1-.2-.2-.2-.4 0-.1.1-.2.3-.2h4.2c.1 0 .2 0 .2.2s-.1.3-.2.4l-1 1.3c-.1.2-.3.6-.3.9l-2.5 11 2.4 11.5c.1.4.3.8.4 1l1 1.4c.1.2.3.4.3.6 0 .1-.1.2-.2.2h-4.8c-.1 0-.2-.1-.2-.2 0-.2.1-.3.3-.5l.9-1.2c.1-.2.1-.5.1-.8l-1.4-6.7h-.1l-1.4 6.6c-.1.4-.1.7.1.9l1 1.2c.1.2.3.4.3.5s-.1.2-.2.2h-4.4c-.1 0-.2 0-.2-.2s.1-.4.3-.6l1-1.3c.2-.3.4-.7.5-1.1l2.3-10.5z" />
  <g
     id="l">
    <use
       xlink:href="#k"
       transform="translate(37.6 39.9)"
       id="use34" />
    <use
       xlink:href="#k"
       transform="translate(43.2 39.9)"
       id="use35" />
  </g>
  <use
     xlink:href="#l"
     transform="translate(-89.3 -53.6)"
     id="use36" />
  <g
     id="o">
    <use
       xlink:href="#l"
       transform="translate(11.7 54.8)"
       id="use37" />
    <use
       xlink:href="#k"
       transform="translate(60.5 94.6)"
       id="use38" />
  </g>
  <use
     xlink:href="#l"
     transform="translate(-5.6 108.4)"
     id="use39" />
  <use
     xlink:href="#l"
     transform="translate(5.6 108.4)"
     id="use40" />
  <g
     id="n">
    <use
       xlink:href="#m"
       transform="translate(-57.7 13.8)"
       id="use41" />
    <use
       xlink:href="#k"
       transform="translate(-49.2 202.4)"
       id="use42" />
  </g>
  <use
     xlink:href="#n"
     transform="translate(-56.1 -13)"
     id="use43" />
  <use
     xlink:href="#k"
     transform="translate(-99.7 189.4)"
     id="use44" />
  <use
     xlink:href="#m"
     transform="translate(-156.5 -39.3)"
     id="use45" />
  <use
     xlink:href="#o"
     transform="translate(-197.3 54.6)"
     id="use46" />
  <use
     xlink:href="#k"
     transform="translate(-167 94.65)"
     id="use47" />
  <use
     xlink:href="#p"
     transform="translate(-11.2 53.8)"
     id="use48" />
  <use
     xlink:href="#p"
     transform="translate(88.1 -54.5)"
     id="use49" />
  <use
     xlink:href="#p"
     transform="translate(36.6 -39.9)"
     id="use50" />
  <use
     xlink:href="#k"
     transform="translate(-103.3 .9)"
     id="use51" />
</svg>
